<?xml version="1.0" standalone="no"?>
<!DOCTYPE svg PUBLIC "-//W3C//DTD SVG 20010904//EN"
 "http://www.w3.org/TR/2001/REC-SVG-20010904/DTD/svg10.dtd">
<svg version="1.0" xmlns="http://www.w3.org/2000/svg"
 width="2362.000000pt" height="1287.000000pt" viewBox="0 0 2362.000000 1287.000000"
 preserveAspectRatio="xMidYMid meet">
<metadata>
Created by potrace 1.16, written by Peter Selinger 2001-2019
</metadata>
<g transform="translate(0.000000,1287.000000) scale(0.100000,-0.100000)"
fill="#000000" stroke="none">
<path d="M0 6435 l0 -6435 2611 0 2610 0 -25 22 c-13 13 -143 185 -288 383
-352 481 -422 574 -429 575 -17 1 -20 -121 -14 -433 4 -186 11 -352 14 -370 7
-34 20 -43 116 -79 33 -13 61 -30 63 -38 2 -13 -28 -15 -235 -13 -172 2 -238
6 -238 14 0 6 38 30 85 53 l85 41 7 49 c4 27 8 236 10 466 3 477 6 459 -76
486 -66 22 -106 42 -106 54 0 6 67 10 173 9 l172 0 108 -154 c124 -176 491
-672 514 -695 14 -13 15 23 9 340 -5 242 -11 362 -19 380 -8 16 -41 40 -95 68
-45 24 -80 47 -77 53 4 5 105 9 241 9 215 0 235 -1 232 -17 -2 -10 -31 -28
-76 -46 -41 -17 -80 -40 -88 -52 -10 -15 -17 -80 -24 -226 -11 -227 -13 -799
-4 -848 l7 -31 9060 0 9060 0 -20 23 c-11 12 -81 105 -155 207 -73 102 -230
315 -348 475 l-215 289 -8 -149 c-9 -169 6 -664 21 -691 5 -9 45 -31 88 -48
44 -17 80 -38 82 -46 2 -13 -28 -15 -235 -13 -172 2 -238 6 -238 14 0 6 38 30
85 53 l85 41 7 48 c11 78 31 811 24 861 -8 54 -25 67 -125 106 -110 43 -95 50
102 50 l174 0 38 -57 c49 -73 268 -374 443 -607 126 -168 136 -178 145 -155
13 34 1 646 -14 688 -10 28 -24 39 -96 72 -47 22 -82 43 -78 49 4 6 93 10 241
10 l234 0 0 5825 0 5825 -11810 0 -11810 0 0 -6435z m20109 6415 c125 -21 213
-88 343 -262 12 -16 18 -15 78 12 53 24 79 29 140 30 95 0 129 -21 194 -119
l46 -71 50 20 c76 30 202 28 274 -4 159 -71 307 -221 391 -397 74 -156 93
-318 56 -472 l-19 -79 52 -33 c94 -60 147 -135 195 -280 57 -173 109 -512 98
-650 -3 -38 -24 -133 -47 -210 -60 -199 -61 -189 43 -286 133 -123 177 -237
177 -455 0 -229 -67 -388 -214 -505 -131 -105 -206 -110 -474 -33 l-124 36
-24 -23 c-25 -23 -88 -124 -98 -157 -6 -17 17 -32 166 -112 293 -156 442 -263
479 -345 21 -46 25 -134 7 -203 -13 -53 -70 -186 -218 -511 -56 -123 -115
-256 -131 -295 -26 -66 -27 -72 -11 -85 21 -16 86 -47 462 -216 768 -345 1081
-514 1253 -675 121 -113 230 -305 276 -488 23 -86 39 -226 43 -365 l3 -87
-11777 0 -11778 0 0 105 0 105 7814 0 7813 0 6 103 c17 310 194 581 520 797
129 85 403 222 812 405 351 157 693 321 729 350 19 14 18 18 -32 117 -28 57
-101 189 -163 293 -122 207 -173 309 -183 368 -22 123 81 247 432 520 81 63
153 121 159 128 9 11 -1 33 -50 102 -34 48 -65 87 -69 87 -3 0 -44 -23 -90
-52 -129 -80 -208 -110 -308 -116 -150 -8 -263 32 -351 125 -161 171 -168 497
-16 799 l35 70 -34 79 c-63 145 -78 209 -79 330 0 125 7 143 89 250 26 33 49
70 53 83 3 14 -8 108 -26 211 -23 138 -31 217 -31 306 0 141 4 150 105 246 37
35 71 72 77 83 5 10 14 63 19 117 20 234 140 378 461 553 l84 45 23 95 c48
199 121 293 299 384 220 114 401 164 582 165 131 0 227 -25 320 -82 l51 -32
91 37 c163 65 413 117 693 143 130 12 182 12 254 1z m-18339 -3755 c63 -7 136
-17 163 -21 l47 -7 0 -308 c0 -268 -2 -309 -15 -309 -29 0 -51 37 -99 165 -56
150 -105 252 -133 277 -11 10 -55 27 -99 39 -66 18 -110 21 -269 22 -209 1
-273 -10 -410 -72 -226 -103 -406 -312 -483 -561 -56 -184 -75 -509 -39 -693
69 -349 262 -611 534 -726 130 -55 182 -64 373 -64 169 0 234 7 348 39 l52 15
0 343 c0 416 28 362 -240 467 -129 50 -145 59 -148 81 -2 16 3 28 13 31 8 4
120 -1 248 -10 226 -15 443 -11 690 14 56 6 57 5 57 -20 0 -31 -19 -45 -151
-110 -53 -27 -107 -59 -120 -73 l-24 -26 -3 -401 c-1 -221 -6 -405 -10 -408
-13 -13 -246 -61 -362 -75 -181 -21 -522 -18 -657 6 -553 99 -930 470 -992
975 -63 511 154 941 611 1211 155 91 374 167 575 198 116 18 399 19 543 1z
m2563 -18 c111 -30 255 -95 348 -158 376 -255 535 -781 402 -1329 -62 -256
-169 -447 -343 -613 -225 -216 -511 -313 -855 -292 -293 18 -505 108 -696 295
-223 219 -340 495 -355 840 -17 384 99 718 333 956 171 174 356 269 607 315
153 28 425 21 559 -14z m1755 -28 c345 -11 944 -2 1240 18 l92 6 0 -277 0
-276 -25 0 c-30 0 -35 10 -86 157 -71 204 -65 199 -235 214 -154 14 -785 4
-795 -12 -8 -14 -19 -365 -19 -626 l0 -213 348 0 c358 0 473 9 504 37 10 9 41
75 69 147 28 72 55 137 61 144 6 6 21 12 34 12 l24 0 0 -430 0 -430 -29 0
c-28 0 -31 5 -60 88 -63 175 -76 205 -101 232 -24 26 -30 27 -164 33 -77 4
-263 7 -414 7 l-275 0 7 -467 c4 -258 9 -475 12 -484 7 -23 199 -32 609 -28
363 5 352 2 397 87 14 26 45 101 68 167 55 155 66 175 91 175 21 0 21 -3 15
-142 -3 -79 -9 -217 -12 -307 l-7 -163 -49 5 c-27 4 -253 12 -501 18 -359 10
-533 10 -842 0 -214 -7 -414 -15 -443 -18 l-53 -6 3 33 3 33 168 57 c93 32
176 64 184 72 26 27 32 139 38 813 7 673 -2 1058 -25 1122 -14 38 -43 53 -215
113 -151 53 -155 55 -155 87 l0 26 88 -6 c48 -4 251 -12 450 -18z m2534 0
c368 -11 934 -3 1236 18 l92 6 0 -317 0 -316 -29 0 c-27 0 -30 5 -76 128 -70
188 -98 238 -144 262 -47 23 -191 38 -401 41 l-145 2 1 -869 c2 -897 6 -1005
41 -1053 25 -34 113 -81 238 -127 117 -43 125 -48 125 -81 0 -23 -3 -25 -29
-20 -16 3 -144 12 -285 19 -206 10 -305 9 -499 -1 -133 -7 -257 -15 -274 -18
-30 -5 -33 -3 -33 20 0 33 8 38 123 81 126 47 206 87 237 121 l25 27 6 411 c4
227 7 654 8 951 l1 539 -217 -6 c-278 -7 -354 -25 -385 -90 -8 -18 -39 -93
-68 -167 -50 -129 -75 -170 -106 -170 -12 0 -14 53 -14 316 l0 317 93 -6 c50
-4 266 -12 479 -18z m2132 0 c206 -11 544 -2 724 18 l52 6 0 -31 c0 -30 -1
-31 -127 -73 -145 -47 -209 -77 -238 -109 -17 -19 -21 -42 -27 -173 -3 -84 -7
-263 -7 -399 l-1 -248 542 0 541 0 -7 378 c-4 207 -11 394 -17 414 -12 48 -41
65 -209 123 -167 58 -170 60 -170 92 0 25 1 26 58 19 188 -20 514 -27 725 -17
122 6 244 14 270 18 l48 6 -3 -33 -3 -32 -170 -59 c-93 -32 -175 -66 -182 -75
-6 -9 -14 -39 -17 -68 -12 -114 -15 -557 -8 -1194 l7 -674 27 -23 c15 -13 97
-46 188 -76 l160 -54 0 -34 c0 -33 -1 -34 -35 -28 -20 3 -145 11 -279 18 -190
10 -295 10 -477 1 -129 -7 -251 -15 -271 -18 -36 -6 -38 -5 -38 19 0 33 13 40
189 102 73 27 141 57 152 68 10 11 23 43 29 71 14 66 29 412 30 684 l0 212
-540 0 -540 0 0 -107 c1 -60 5 -260 10 -445 9 -377 12 -394 79 -432 19 -11 95
-41 170 -67 135 -46 136 -47 139 -79 3 -32 3 -33 -32 -27 -20 3 -143 11 -275
18 -188 10 -290 10 -482 1 -134 -7 -261 -15 -281 -19 -37 -5 -38 -5 -38 25 0
19 6 32 18 37 9 4 75 27 145 51 179 62 204 76 217 121 16 53 23 911 13 1448
-7 343 -12 436 -23 459 -13 26 -32 35 -170 81 -191 64 -200 68 -200 102 0 25
1 26 58 19 31 -3 155 -11 276 -17z m3128 0 c358 -11 938 -3 1236 18 l92 6 0
-277 c0 -268 -1 -276 -20 -276 -27 0 -43 28 -89 163 -45 131 -63 167 -93 186
-12 7 -62 17 -112 22 -102 10 -481 10 -686 0 l-135 -6 -6 -70 c-3 -38 -9 -229
-13 -422 l-7 -353 358 1 c410 1 462 5 498 39 13 13 41 66 61 119 66 174 70
181 98 181 l26 0 0 -431 0 -430 -27 3 c-26 3 -31 12 -69 118 -23 63 -49 135
-59 159 -30 74 -31 74 -488 79 l-399 4 8 -393 c4 -217 9 -434 13 -484 l6 -90
90 -8 c50 -4 257 -7 462 -5 358 3 373 4 400 24 41 30 76 101 130 262 46 139
47 142 76 142 l29 0 -6 -77 c-3 -43 -8 -181 -12 -307 l-6 -229 -49 6 c-27 3
-251 12 -498 18 -356 10 -529 10 -847 0 -219 -7 -423 -15 -451 -18 l-53 -6 0
31 c0 19 6 32 18 37 9 4 75 27 145 51 151 52 202 76 212 101 4 10 11 90 17
178 12 193 1 1635 -13 1710 -5 27 -16 55 -24 61 -9 6 -92 37 -185 69 l-170 57
0 31 0 30 83 -6 c45 -4 251 -12 459 -18z m6549 -4122 c104 -70 105 -185 4
-263 -78 -59 -184 -25 -227 74 -24 54 -19 100 16 146 50 66 144 86 207 43z
m652 -2 c40 -28 77 -89 77 -130 0 -38 -35 -100 -70 -125 -72 -51 -140 -47
-198 13 -57 59 -68 131 -29 188 54 80 147 103 220 54z m-230 -732 c142 -354
408 -997 592 -1435 l109 -256 110 -38 c151 -50 166 -59 166 -90 0 -22 -3 -25
-22 -20 -13 3 -128 11 -256 18 -183 9 -278 9 -443 -1 -115 -6 -217 -15 -225
-18 -12 -4 -15 1 -12 23 3 28 8 31 156 79 l153 49 -7 30 c-8 37 -137 418 -158
467 l-15 37 -138 7 c-176 10 -671 1 -684 -12 -34 -34 -173 -452 -167 -503 3
-26 -1 -24 178 -92 77 -30 85 -36 88 -62 3 -26 1 -28 -20 -22 -13 3 -99 11
-192 18 -131 9 -209 9 -343 -1 -95 -6 -180 -14 -189 -18 -12 -4 -15 0 -12 23
3 26 13 33 118 79 111 49 116 53 142 100 30 56 599 1349 758 1723 106 248 105
246 161 251 13 1 49 -79 152 -336z m-5623 276 c52 -10 133 -30 179 -45 l84
-26 -6 -217 c-4 -120 -9 -226 -13 -235 -18 -47 -45 0 -113 198 l-55 156 -64
20 c-230 71 -417 44 -539 -78 -78 -77 -103 -137 -103 -241 0 -111 12 -150 63
-213 60 -73 154 -133 367 -234 102 -47 221 -107 265 -133 94 -55 219 -174 257
-247 79 -147 76 -345 -5 -498 -40 -75 -153 -192 -227 -233 -78 -44 -218 -91
-324 -109 -122 -21 -367 -22 -469 -1 -167 35 -238 58 -250 84 -8 18 -5 77 12
246 27 264 31 282 56 282 28 0 37 -25 91 -236 l49 -189 39 -15 c170 -69 416
-68 562 1 184 87 273 317 188 486 -49 97 -121 150 -425 309 -264 138 -337 185
-414 263 -123 126 -168 280 -135 456 47 246 300 443 601 468 116 10 217 4 329
-19z m-14720 -24 c195 0 390 3 433 7 l78 8 -3 -27 c-3 -24 -14 -32 -118 -73
-235 -94 -232 -91 -242 -258 -11 -196 -10 -1016 2 -1119 13 -121 42 -208 91
-282 66 -99 158 -157 296 -186 92 -20 302 -19 378 0 168 44 282 157 346 344
18 50 19 92 19 590 0 550 -9 755 -33 814 -17 39 -46 55 -197 106 -96 33 -105
38 -105 61 0 25 1 25 70 20 106 -8 613 -6 673 2 44 6 54 4 59 -9 11 -27 -9
-44 -92 -77 -124 -50 -162 -78 -169 -123 -4 -21 -11 -310 -16 -643 -10 -625
-11 -646 -56 -799 -50 -173 -168 -317 -324 -396 -125 -63 -238 -85 -450 -86
-330 -2 -566 108 -693 322 -80 136 -78 117 -88 819 -9 643 -16 763 -42 804
-10 14 -53 39 -114 65 -182 78 -183 78 -183 106 0 24 1 25 63 17 34 -4 222 -7
417 -7z m2515 0 l281 0 54 -88 c30 -49 103 -154 161 -235 142 -198 867 -1172
890 -1197 19 -19 19 -12 18 320 0 187 -4 480 -8 650 -6 269 -9 314 -25 344
-18 34 -17 33 -248 139 -58 26 -68 35 -68 56 0 26 0 26 63 18 81 -9 643 -9
725 0 l62 8 0 -38 0 -37 -128 -45 c-165 -58 -181 -73 -192 -170 -12 -106 -29
-741 -36 -1362 l-6 -528 -32 0 c-17 0 -36 4 -42 8 -6 4 -64 81 -129 172 -330
459 -1154 1572 -1172 1583 -6 4 -13 -17 -17 -51 -7 -60 0 -994 10 -1270 8
-211 2 -203 199 -268 144 -46 145 -47 145 -77 0 -27 -2 -29 -28 -24 -15 3
-112 11 -215 18 -145 9 -232 9 -380 0 -106 -6 -202 -14 -215 -18 -21 -5 -23
-3 -20 23 3 27 12 32 132 81 148 60 173 75 186 109 18 46 29 313 42 985 l12
665 -23 32 c-27 38 -70 62 -199 108 -124 45 -132 50 -132 80 0 22 3 24 28 17
15 -5 153 -8 307 -8z m2940 0 c204 0 398 3 433 7 61 8 62 7 62 -17 0 -30 -20
-41 -152 -84 -115 -38 -159 -65 -170 -106 -24 -85 -26 -1576 -2 -1678 10 -41
41 -60 176 -107 68 -24 129 -48 136 -53 6 -5 12 -21 12 -34 0 -21 -4 -24 -22
-20 -13 3 -123 11 -244 18 -213 11 -599 2 -694 -17 -30 -7 -31 -6 -28 22 3 27
10 31 145 80 78 28 149 57 158 64 29 24 36 94 44 463 9 386 -2 1168 -18 1245
-5 24 -16 51 -25 60 -9 10 -80 40 -159 67 -132 47 -142 53 -145 78 l-3 27 63
-8 c35 -4 230 -7 433 -7z m1350 0 c160 0 322 2 360 5 69 5 70 5 73 -21 3 -24
-2 -27 -60 -44 -35 -9 -98 -30 -140 -47 -72 -27 -78 -32 -78 -58 0 -46 120
-359 368 -960 144 -351 190 -455 197 -449 7 8 250 626 333 849 96 260 182 520
182 553 0 35 -28 55 -137 96 -87 33 -98 40 -98 62 0 20 4 24 25 21 97 -10 505
-13 565 -4 38 6 73 8 78 3 17 -17 -9 -43 -77 -74 -87 -41 -116 -73 -174 -197
-133 -285 -408 -962 -627 -1547 l-117 -311 -35 -7 c-35 -6 -63 6 -63 29 0 36
-472 1234 -666 1690 -107 253 -134 293 -212 322 -106 38 -132 53 -132 72 0 29
8 32 79 24 36 -4 197 -7 356 -7z m2830 0 c380 0 723 4 763 8 l72 8 0 -250 c0
-243 -1 -251 -20 -251 -24 0 -35 22 -85 163 -21 60 -46 119 -56 131 -10 13
-39 29 -63 35 -48 12 -623 14 -731 2 -57 -6 -59 -7 -66 -39 -4 -18 -10 -188
-14 -377 l-7 -345 273 0 c314 0 452 11 489 38 17 13 39 55 68 132 47 125 56
140 83 140 18 0 19 -15 19 -386 l0 -385 -22 3 c-23 3 -32 21 -99 196 -13 35
-33 72 -45 82 -34 33 -114 40 -446 40 l-320 0 6 -357 c4 -197 9 -391 12 -431
5 -68 7 -72 32 -79 15 -4 196 -8 402 -8 414 0 424 1 460 61 12 18 44 97 73
176 45 125 55 143 76 146 l24 4 -7 -114 c-3 -62 -9 -187 -12 -277 l-7 -163
-34 5 c-19 4 -216 11 -437 18 -306 9 -487 9 -766 0 -201 -6 -384 -14 -407 -18
-43 -6 -43 -5 -43 25 0 34 -11 28 183 96 119 42 142 56 151 93 12 49 17 853 9
1281 l-8 414 -27 23 c-15 13 -71 38 -125 56 -161 53 -183 64 -183 94 l0 26 73
-8 c39 -4 383 -8 762 -8z m2215 0 l605 0 90 -28 c182 -57 297 -145 357 -273
26 -56 32 -82 36 -163 5 -113 -8 -188 -48 -269 -67 -134 -203 -228 -412 -287
-32 -9 -58 -19 -58 -22 0 -7 439 -658 533 -790 92 -130 122 -156 215 -187 52
-18 68 -28 70 -44 l3 -22 -238 0 -239 0 -19 33 c-102 177 -349 545 -563 840
l-114 157 -124 0 -124 0 0 -107 c2 -245 20 -681 30 -716 13 -44 53 -67 190
-112 121 -39 140 -51 140 -81 0 -23 -3 -26 -27 -21 -16 4 -127 11 -247 18
-207 11 -577 2 -683 -17 -30 -6 -33 -4 -33 20 0 31 13 38 177 95 67 24 129 52
139 62 13 14 19 48 25 146 9 148 9 757 0 1246 l-6 339 -27 23 c-15 13 -71 38
-125 56 -162 53 -183 64 -183 95 0 24 2 25 28 18 15 -5 299 -9 632 -9z m4395
0 c204 0 398 3 433 7 l63 8 -3 -28 c-3 -25 -12 -30 -147 -77 -108 -38 -149
-56 -163 -76 -17 -22 -20 -53 -28 -235 -12 -272 -12 -1149 -1 -1329 5 -78 15
-153 22 -168 12 -27 84 -62 209 -102 89 -29 110 -42 110 -71 0 -23 -3 -26 -27
-21 -16 4 -127 11 -248 18 -169 9 -272 9 -445 0 -124 -7 -235 -15 -248 -18
-21 -5 -23 -2 -20 23 3 27 11 32 153 84 131 48 152 59 165 85 13 26 15 141 15
860 0 547 -4 840 -11 860 -9 28 -22 34 -155 80 -79 28 -150 54 -157 59 -6 4
-12 18 -12 31 0 24 1 25 63 17 34 -4 229 -7 432 -7z m1815 0 c349 0 681 3 738
8 l102 7 0 -285 c0 -277 -1 -285 -20 -285 -23 0 -35 21 -84 149 -52 134 -83
187 -120 205 -36 17 -242 36 -387 36 l-99 0 1 -327 c1 -181 4 -557 8 -838 6
-433 9 -515 23 -546 14 -31 27 -41 109 -77 52 -22 121 -51 154 -64 52 -20 60
-27 63 -52 3 -25 1 -28 -20 -23 -13 3 -125 11 -249 18 -176 9 -277 10 -455 0
-126 -6 -239 -14 -252 -18 -21 -5 -23 -3 -20 23 3 26 11 32 88 61 125 48 211
94 234 126 20 27 21 46 27 370 4 188 7 569 8 846 l1 504 -189 -6 c-103 -4
-212 -12 -241 -17 -86 -16 -107 -44 -180 -236 -46 -121 -54 -134 -81 -134 -18
0 -19 13 -19 285 l0 285 113 -7 c61 -5 398 -8 747 -8z m4135 0 c347 0 683 3
748 8 l117 7 0 -286 0 -285 -22 3 c-19 2 -32 26 -79 145 -65 163 -86 197 -133
213 -44 14 -232 30 -368 30 l-108 0 1 -572 c0 -315 4 -690 8 -833 9 -348 0
-331 221 -420 116 -47 125 -52 128 -79 3 -26 1 -28 -19 -23 -13 4 -125 12
-250 18 -178 10 -278 10 -456 1 -125 -7 -238 -15 -251 -19 -21 -5 -23 -3 -20
22 3 26 12 32 118 75 168 67 202 88 219 135 12 33 15 189 19 869 l4 829 -183
-6 c-187 -6 -275 -17 -317 -39 -29 -15 -48 -51 -108 -209 -48 -126 -56 -139
-86 -139 -17 0 -18 20 -18 285 l0 285 103 -7 c56 -5 386 -8 732 -8z m-8262
-3455 c156 -381 306 -739 333 -792 27 -54 61 -83 115 -100 22 -6 44 -17 50
-24 14 -17 1 -37 -19 -29 -14 5 -442 8 -487 2 -12 -1 -20 4 -20 12 0 9 29 24
75 40 42 14 81 29 87 34 9 5 0 42 -32 135 -24 70 -47 135 -50 145 -7 16 -25
17 -238 15 l-232 -3 -27 -71 c-15 -40 -36 -103 -47 -142 -22 -80 -23 -79 54
-107 56 -20 77 -34 73 -47 -5 -14 -413 -11 -413 3 0 10 95 70 128 81 7 3 98
207 349 783 76 176 146 326 155 333 14 10 20 10 30 0 6 -7 59 -128 116 -268z
m6152 215 c14 -30 72 -169 129 -309 58 -141 153 -370 212 -511 l107 -254 62
-21 c34 -11 70 -27 80 -34 21 -15 11 -40 -14 -31 -9 3 -128 6 -264 6 -276 0
-292 5 -167 51 40 15 77 31 81 35 9 9 -63 235 -87 270 -14 23 -17 23 -238 23
l-223 0 -13 -28 c-23 -50 -80 -226 -80 -248 0 -18 12 -27 61 -46 54 -20 93
-51 79 -60 -14 -9 -420 4 -420 13 0 6 31 25 69 42 l69 31 158 361 c87 198 196
448 242 555 46 107 89 200 94 207 16 20 36 3 63 -52z m-17227 -12 c16 -38 96
-228 176 -423 80 -195 172 -418 204 -495 l59 -140 74 -30 c124 -51 108 -56
-191 -56 -300 0 -320 6 -178 53 l87 29 -14 47 c-8 25 -31 92 -51 149 l-37 103
-232 0 -233 0 -47 -141 c-53 -160 -54 -154 30 -184 56 -20 77 -34 73 -47 -5
-13 -412 -12 -416 1 -2 6 23 23 55 39 32 17 66 38 75 48 9 11 120 256 247 545
126 290 235 536 243 548 23 37 43 25 76 -46z m13442 22 c0 -9 -30 -30 -75 -52
-41 -19 -79 -41 -85 -47 -11 -14 -2 -138 31 -431 36 -327 68 -528 87 -547 10
-10 44 -28 77 -41 39 -15 61 -30 63 -42 3 -13 0 -16 -13 -11 -17 6 -450 10
-476 4 -6 -2 -14 3 -16 10 -3 8 17 22 54 37 117 51 107 35 100 160 -6 126 -74
720 -86 749 -7 20 -110 -199 -305 -651 -108 -252 -133 -303 -145 -303 -12 0
-32 44 -144 310 -121 287 -286 663 -296 673 -5 4 -11 -27 -14 -70 -18 -222
-37 -545 -39 -678 l-3 -149 75 -31 c45 -18 75 -36 75 -45 0 -8 -6 -14 -14 -12
-8 2 -110 3 -228 3 -237 0 -252 5 -147 49 103 43 100 40 118 137 31 173 86
689 86 814 0 77 -11 91 -93 124 -88 36 -73 45 70 45 70 0 151 -3 180 -6 l52
-7 122 -286 c156 -364 235 -536 246 -535 12 1 102 187 253 524 l137 305 149 5
c82 3 161 7 177 8 18 1 27 -3 27 -13z m2750 0 c0 -10 -30 -29 -77 -51 -43 -19
-81 -40 -86 -47 -12 -17 -1 -157 34 -467 40 -355 58 -481 74 -505 7 -11 43
-31 81 -45 47 -18 70 -31 72 -44 3 -14 0 -17 -13 -12 -22 8 -457 9 -479 0 -10
-4 -16 -1 -16 9 0 21 17 32 83 57 39 15 62 30 69 45 11 25 -1 170 -48 565 -31
266 -35 290 -44 290 -4 0 -19 -26 -33 -57 -14 -32 -57 -130 -97 -218 -39 -88
-115 -259 -167 -380 -129 -298 -141 -321 -158 -304 -7 8 -36 70 -63 139 -106
266 -353 830 -364 830 -10 0 -17 -58 -33 -290 -23 -324 -33 -539 -27 -563 8
-35 19 -44 75 -62 53 -17 77 -31 77 -46 0 -4 -102 -8 -226 -8 -253 0 -264 4
-145 54 40 17 76 37 81 45 31 57 122 883 105 958 -5 25 -17 34 -76 60 -38 17
-69 36 -69 41 0 12 219 15 306 5 l51 -6 52 -127 c100 -240 306 -711 312 -711
10 0 242 500 369 797 l22 52 152 4 c83 1 163 4 179 5 18 1 27 -3 27 -13z
m-18580 -127 c0 -144 -8 -176 -33 -137 -8 13 -23 48 -32 78 -30 93 -24 91
-264 91 -116 0 -212 -4 -215 -8 -2 -4 -8 -97 -12 -206 l-7 -198 197 4 c224 3
199 -7 246 102 14 32 30 59 35 60 6 1 11 -77 13 -212 3 -239 -3 -254 -50 -141
-45 109 -22 99 -245 99 l-196 0 7 -227 c5 -158 11 -232 19 -240 7 -7 50 -27
96 -45 136 -53 124 -60 -95 -56 -104 1 -232 1 -284 -2 -126 -6 -128 11 -5 59
l90 36 8 55 c4 30 7 247 5 481 -2 336 -6 429 -16 442 -8 9 -37 24 -65 33 -86
28 -118 44 -112 54 4 6 178 10 461 10 l454 0 0 -132z m1075 121 c70 -13 121
-37 170 -81 57 -49 78 -101 79 -188 0 -88 -22 -146 -75 -199 -33 -33 -140 -91
-169 -91 -50 -1 -43 -16 110 -244 164 -244 216 -306 269 -321 19 -6 36 -16 39
-23 3 -9 -29 -12 -135 -12 l-138 1 -115 176 c-63 97 -149 225 -193 285 l-78
108 -71 0 -71 0 5 -212 c4 -144 9 -222 18 -240 13 -28 21 -33 120 -72 30 -11
56 -28 58 -36 2 -13 -33 -15 -275 -13 -313 3 -329 7 -201 58 124 48 113 -5
111 530 -1 303 -5 471 -12 484 -6 10 -34 27 -63 37 -87 28 -119 44 -113 54 9
14 655 13 730 -1z m4337 -4 c1 -5 -21 -18 -48 -28 -94 -34 -122 -49 -128 -71
-8 -28 -7 -915 0 -943 5 -16 27 -30 92 -55 48 -19 88 -40 90 -48 2 -13 -35
-15 -275 -13 -211 2 -278 6 -278 15 0 7 35 26 77 43 43 16 83 35 89 42 33 33
32 938 0 977 -7 8 -36 23 -64 32 -72 23 -109 43 -102 55 9 13 544 7 547 -6z
m656 4 c-2 -5 -28 -20 -58 -33 -31 -12 -78 -37 -105 -56 -88 -61 -455 -384
-455 -401 0 -11 420 -458 508 -541 48 -45 87 -73 122 -85 34 -12 50 -23 47
-33 -1 -8 -11 -14 -22 -13 -11 2 -125 3 -253 4 -252 0 -273 6 -172 44 29 11
55 26 57 32 3 7 -13 31 -34 55 -22 24 -111 122 -198 218 -230 253 -235 259
-235 269 0 6 95 99 212 208 117 108 225 212 241 230 l29 33 -66 30 c-36 16
-66 34 -66 40 0 6 76 10 226 10 154 0 225 -3 222 -11z m1260 -131 c-2 -87 -7
-143 -13 -143 -5 0 -22 33 -36 74 -39 113 -34 111 -275 111 -148 0 -205 -3
-210 -12 -4 -7 -10 -99 -12 -205 l-5 -193 169 1 c217 0 230 5 262 84 27 67 40
87 53 79 5 -3 9 -99 9 -214 0 -250 -9 -270 -60 -132 -12 34 -32 69 -44 77 -16
12 -59 15 -204 15 l-184 0 3 -225 c5 -260 -3 -242 116 -290 116 -46 105 -59
-42 -55 -148 5 -162 5 -310 0 -148 -4 -159 9 -43 55 124 48 113 -4 111 518 -1
249 -5 465 -10 481 -8 24 -20 33 -73 53 -99 36 -112 42 -105 53 4 6 168 10
456 10 l450 0 -3 -142z m932 132 c0 -6 -37 -28 -82 -49 -46 -21 -89 -45 -96
-54 -18 -21 -33 -445 -22 -619 13 -199 48 -276 149 -325 51 -26 66 -28 171
-28 106 0 119 2 166 27 62 32 108 85 129 147 20 60 22 761 2 801 -9 18 -35 34
-92 56 -43 18 -81 37 -83 43 -3 8 61 11 227 11 156 0 231 -3 231 -11 0 -5 -29
-23 -64 -39 -53 -24 -66 -35 -75 -62 -6 -19 -15 -189 -20 -393 -10 -390 -13
-412 -71 -512 -70 -122 -190 -177 -385 -176 -215 1 -341 65 -415 213 -23 44
-23 57 -31 444 -7 338 -11 402 -24 423 -9 13 -50 39 -91 58 -43 20 -73 39 -69
45 9 14 545 14 545 0z m1775 -1 c104 -19 192 -79 226 -154 23 -50 26 -180 5
-229 -32 -78 -122 -148 -225 -176 -30 -8 -41 -15 -37 -26 9 -22 261 -396 307
-454 29 -36 58 -60 95 -77 30 -13 54 -29 54 -34 0 -5 -60 -9 -137 -9 l-138 1
-116 177 c-64 97 -151 225 -193 285 l-78 107 -70 0 -71 0 7 -217 c4 -120 10
-228 13 -240 4 -16 25 -30 91 -55 48 -19 88 -40 90 -48 2 -13 -35 -15 -275
-13 -310 3 -334 9 -206 53 118 41 108 -7 111 513 2 249 0 466 -3 484 -5 28
-12 34 -78 59 -94 35 -109 43 -102 55 9 13 656 12 730 -2z m1643 -139 c-2 -90
-7 -151 -13 -152 -5 -1 -28 35 -50 80 -59 120 -53 116 -207 121 l-131 3 6
-348 c4 -191 7 -407 7 -480 l0 -133 95 -46 c52 -25 95 -49 95 -54 0 -6 -116
-9 -281 -9 -210 0 -279 2 -276 11 2 7 35 26 73 42 120 52 108 25 115 262 4
114 7 331 8 482 l1 273 -129 -4 c-152 -4 -156 -7 -196 -106 -28 -71 -52 -105
-66 -96 -5 3 -9 72 -9 155 l0 149 480 0 481 0 -3 -150z m9335 135 c1 -5 -32
-22 -73 -38 -41 -15 -81 -34 -89 -42 -34 -33 -35 -945 -2 -978 6 -6 46 -25 89
-42 116 -45 106 -59 -43 -55 -148 5 -162 5 -310 0 -151 -5 -159 9 -33 58 81
31 88 36 93 65 3 18 5 238 3 490 -3 394 -5 459 -18 467 -8 6 -37 19 -65 29
-27 11 -63 24 -78 30 -16 6 -25 16 -22 21 8 13 544 9 548 -5z"/>
<path d="M18580 12382 c-132 -45 -254 -126 -248 -166 3 -20 8 -21 134 -21 115
0 134 -2 153 -19 29 -26 27 -40 -16 -87 -45 -50 -99 -82 -189 -113 -89 -30
-131 -52 -226 -118 -240 -166 -438 -394 -438 -505 0 -78 60 -111 130 -72 54
30 76 69 90 154 20 120 37 161 87 205 l46 40 108 0 108 0 30 63 c37 77 158
210 233 255 83 50 147 59 253 38 121 -23 180 -46 278 -105 114 -68 134 -75
163 -56 49 32 29 61 -94 140 -85 54 -109 84 -93 114 34 64 224 17 398 -98 72
-48 82 -58 106 -115 15 -34 40 -78 55 -96 l28 -33 35 31 c33 29 34 33 37 115
5 111 -14 149 -106 217 -140 104 -175 112 -360 85 -90 -14 -109 -14 -173 0
-40 8 -104 31 -143 51 -39 21 -101 53 -137 72 -84 43 -167 51 -249 24z"/>
<path d="M20520 12277 c-103 -39 -199 -96 -236 -140 -70 -83 -104 -229 -69
-298 10 -19 37 -55 61 -80 27 -30 47 -63 54 -90 34 -138 73 -180 168 -187 49
-3 65 1 117 28 162 87 155 84 229 84 72 0 149 -27 177 -60 32 -39 60 18 39 80
-15 46 -107 131 -177 164 -52 24 -68 27 -158 25 -71 -1 -129 -9 -200 -27 -55
-14 -108 -26 -117 -26 -52 0 -43 104 18 220 38 73 185 247 227 269 45 24 29
71 -22 71 -15 -1 -64 -15 -111 -33z"/>
<path d="M19130 11714 c-128 -12 -322 -37 -377 -49 -165 -38 -323 -166 -402
-325 -55 -111 -81 -237 -81 -390 0 -63 -5 -133 -11 -155 -6 -22 -45 -118 -86
-214 l-75 -174 3 -441 c5 -504 10 -467 -87 -544 -67 -53 -81 -100 -64 -223 14
-106 39 -163 82 -189 55 -33 77 -27 135 37 28 32 54 55 58 51 3 -3 10 -62 15
-130 12 -167 54 -312 149 -524 l33 -72 -45 -138 c-93 -285 -116 -412 -93 -504
36 -138 205 -425 352 -594 124 -142 400 -357 479 -372 54 -10 102 21 225 146
204 205 318 404 252 439 -10 5 -73 17 -140 26 -204 26 -333 78 -492 196 -187
138 -336 321 -436 533 -49 105 -56 143 -25 127 10 -6 68 -55 128 -109 232
-208 340 -292 479 -371 l88 -51 191 0 c223 0 293 9 354 48 71 43 105 99 109
180 5 85 -19 125 -96 164 -74 37 -142 44 -267 24 -120 -19 -176 -11 -220 30
-22 20 -24 27 -15 45 15 28 68 49 143 56 46 4 98 -2 195 -21 154 -30 189 -27
246 27 62 59 60 121 -3 163 -57 37 -108 41 -189 14 -112 -38 -131 -41 -205
-23 -67 16 -68 16 -153 -10 -95 -30 -88 -31 -181 31 l-53 35 -41 -27 c-44 -29
-66 -30 -82 -4 -8 12 -6 27 7 57 35 77 57 84 158 45 52 -21 60 -18 160 47 59
39 80 35 152 -31 94 -85 109 -86 185 -15 52 48 81 65 110 65 11 0 59 -21 107
-46 l87 -46 81 32 c48 18 89 28 99 24 24 -9 47 -56 47 -97 0 -47 18 -95 40
-107 10 -6 43 -10 73 -10 54 0 56 1 106 56 103 113 279 411 315 533 9 29 20
133 26 235 9 137 18 211 41 304 31 131 36 215 18 287 -12 48 -49 95 -74 95
-24 0 -55 -81 -62 -163 -6 -70 -8 -73 -60 -128 -59 -62 -165 -122 -215 -122
-20 0 -37 8 -49 22 -17 21 -18 25 -3 59 28 65 28 68 -12 91 -48 29 -39 38 73
67 79 21 92 28 129 68 82 89 93 147 39 195 -50 44 -61 40 -69 -21 -8 -60 -44
-128 -79 -151 -124 -81 -277 5 -277 156 0 36 -24 45 -64 22 -96 -55 -99 -86
-14 -172 72 -72 72 -90 0 -108 -63 -16 -65 -21 -48 -116 9 -46 20 -138 26
-204 13 -147 13 -147 65 -217 75 -100 68 -154 -30 -247 -29 -28 -70 -71 -91
-97 l-38 -46 -61 5 c-33 4 -88 9 -122 13 -52 6 -66 4 -96 -15 -63 -39 -94 -26
-146 62 -34 55 -49 60 -123 37 -86 -27 -124 -26 -165 6 -68 52 -94 132 -55
167 27 25 48 21 74 -13 l24 -31 70 55 c38 31 76 56 86 56 27 0 66 -57 88 -130
24 -81 48 -103 111 -103 44 0 79 21 113 67 25 33 27 87 5 201 -12 66 -13 114
-6 275 l10 196 -33 148 c-28 129 -32 161 -27 240 8 131 20 162 85 226 41 40
87 70 162 107 141 70 190 85 289 91 105 6 175 -9 274 -59 76 -38 77 -39 96
-20 39 39 53 146 27 217 -7 22 -50 99 -95 173 -112 185 -115 197 -90 374 23
160 19 215 -17 296 -34 75 -83 132 -155 180 -91 61 -110 63 -315 45 -99 -8
-201 -12 -229 -9 -27 4 -118 29 -202 56 -153 49 -233 62 -333 53z m-177 -1319
c139 -29 368 -183 416 -278 37 -74 39 -159 8 -308 l-26 -124 19 -120 c22 -137
25 -208 9 -254 -22 -63 -67 -28 -135 106 -45 90 -44 125 6 220 31 59 40 88 40
125 0 62 -18 70 -66 32 -80 -64 -110 -76 -143 -55 -12 8 -7 22 27 78 54 90 56
97 37 127 -21 31 -81 70 -95 61 -5 -3 -10 -35 -10 -70 0 -56 -4 -68 -33 -107
-70 -92 -140 -110 -232 -60 -68 37 -98 84 -90 139 7 47 -7 83 -31 83 -9 0 -31
-15 -50 -34 -37 -37 -45 -85 -23 -129 17 -32 71 -87 86 -87 20 0 15 -19 -13
-46 -21 -22 -31 -25 -62 -19 -55 9 -83 34 -126 114 l-38 72 -39 -6 c-30 -5
-47 -2 -72 14 -67 41 -70 50 -58 143 14 103 47 173 112 238 57 57 183 122 269
139 30 6 64 13 75 15 47 9 175 5 238 -9z"/>
<path d="M18627 10309 c-91 -21 -168 -83 -212 -169 -31 -61 -32 -91 -2 -126
30 -35 62 -28 120 25 75 69 117 80 117 32 0 -17 3 -32 8 -34 4 -3 36 1 72 9
36 7 82 14 104 14 l39 0 -6 40 c-5 38 -4 40 22 40 16 0 49 -11 75 -25 26 -14
49 -25 52 -25 2 0 4 15 4 34 0 123 -219 226 -393 185z"/>
<path d="M18812 10004 c-42 -29 -17 -124 33 -124 27 0 55 38 55 74 0 59 -42
83 -88 50z"/>
<path d="M20767 11393 c-14 -14 -4 -28 91 -127 78 -79 114 -128 172 -226 40
-69 85 -140 99 -159 34 -45 98 -91 128 -91 22 0 23 3 23 69 0 135 -80 319
-182 422 -54 54 -67 61 -156 89 -92 29 -161 38 -175 23z"/>
<path d="M21170 10507 c-62 -31 -156 -208 -167 -312 -7 -68 10 -140 57 -240
73 -158 163 -252 309 -323 74 -36 79 -37 186 -37 100 0 116 3 170 28 87 41
115 71 115 124 0 83 -68 213 -112 213 -13 0 -47 -27 -88 -70 -76 -79 -122
-103 -200 -103 -69 1 -118 22 -177 76 -79 72 -102 159 -68 258 23 67 68 114
139 149 35 16 69 36 76 44 44 54 -96 205 -190 206 -14 0 -36 -6 -50 -13z"/>
<path d="M20230 10249 c-69 -19 -90 -32 -96 -54 -4 -15 -26 -34 -65 -55 -63
-33 -84 -59 -74 -90 9 -27 39 -26 142 7 l85 26 74 -17 c81 -19 97 -16 88 19
-3 12 -1 26 6 30 12 7 25 -1 95 -59 53 -45 65 -40 65 32 0 36 -6 48 -39 81
-65 65 -200 103 -281 80z"/>
<path d="M20201 9984 c-26 -32 -26 -31 -1 -71 24 -40 61 -44 84 -11 22 32 20
55 -9 83 -31 32 -48 31 -74 -1z"/>
<path d="M17262 9618 c-19 -24 -43 -126 -43 -185 -1 -72 10 -101 56 -152 43
-47 82 -58 145 -41 65 17 108 51 181 141 112 136 121 167 54 195 l-36 15 -49
-55 c-106 -115 -195 -111 -215 9 -4 22 -14 50 -21 63 -16 24 -55 30 -72 10z"/>
<path d="M19847 9071 c4 -40 1 -74 -10 -105 -21 -61 -14 -80 27 -72 65 13 103
98 72 162 -13 29 -67 74 -88 74 -3 0 -4 -27 -1 -59z"/>
<path d="M20809 8133 c-8 -10 -36 -61 -61 -113 -75 -153 -199 -284 -393 -415
-169 -113 -331 -188 -500 -229 -129 -32 -145 -40 -145 -70 0 -29 106 -246 165
-337 48 -74 157 -171 212 -190 20 -6 54 -8 78 -4 98 14 395 193 485 292 70 77
171 231 227 348 42 89 48 109 51 182 4 85 -5 171 -39 383 -26 155 -46 194 -80
153z"/>
<path d="M18346 7292 c-8 -13 17 -105 60 -220 145 -387 310 -598 571 -729 149
-75 243 -70 243 11 0 42 -86 209 -137 266 -25 28 -71 62 -113 84 -165 87 -279
194 -478 451 -102 131 -132 159 -146 137z"/>
<path d="M17892 7218 c-18 -18 -15 -37 17 -105 81 -170 487 -808 558 -875 35
-34 103 -47 122 -24 18 22 -3 60 -136 249 -59 84 -189 276 -290 428 -231 350
-239 359 -271 327z"/>
<path d="M20892 7148 c-5 -7 -26 -47 -45 -90 -84 -183 -276 -409 -421 -492
-22 -14 -82 -39 -133 -56 -89 -31 -133 -58 -133 -83 0 -26 61 -116 102 -151
23 -20 59 -41 79 -47 97 -29 258 112 436 382 121 185 167 317 161 468 -2 60
-6 76 -19 79 -9 1 -21 -3 -27 -10z"/>
<path d="M19656 6998 c-12 -16 -16 -47 -16 -116 0 -152 -32 -186 -144 -156
-100 28 -147 29 -178 4 -67 -52 -57 -197 25 -353 35 -67 123 -152 167 -162 63
-14 294 54 387 114 116 75 130 113 78 216 -50 98 -63 110 -109 95 -46 -15 -70
-46 -95 -123 -12 -34 -30 -77 -41 -94 l-20 -33 -103 0 c-87 0 -110 4 -147 23
-64 32 -64 54 0 118 l52 52 63 -6 c76 -7 98 6 134 78 64 129 68 276 8 343 -26
28 -42 28 -61 0z"/>
<path d="M3792 8960 c-241 -63 -428 -248 -518 -514 -104 -304 -71 -840 71
-1169 53 -123 94 -186 180 -272 166 -167 372 -226 630 -180 273 49 481 282
555 624 73 334 38 801 -80 1085 -96 230 -270 387 -477 431 -98 21 -271 18
-361 -5z"/>
<path d="M20417 3612 c-97 -224 -177 -410 -177 -415 0 -4 159 -7 354 -7 l355
0 -73 178 c-191 464 -270 652 -276 652 -3 0 -86 -183 -183 -408z"/>
<path d="M12330 3911 l0 -401 194 0 c129 0 220 5 271 15 211 40 315 149 331
345 12 161 -42 286 -158 361 -103 66 -133 72 -400 77 l-238 4 0 -401z"/>
<path d="M14244 929 c-25 -49 -174 -391 -174 -401 0 -4 87 -8 194 -8 l194 0
-90 213 c-49 116 -93 216 -98 221 -5 5 -16 -6 -26 -25z"/>
<path d="M20491 943 c-62 -133 -182 -416 -178 -419 2 -3 90 -3 194 -2 l190 3
-89 215 c-49 118 -93 218 -97 223 -4 4 -13 -5 -20 -20z"/>
<path d="M3252 924 c-53 -105 -172 -386 -167 -394 4 -6 84 -10 192 -10 172 0
185 1 180 18 -9 32 -169 407 -177 416 -5 4 -17 -9 -28 -30z"/>
<path d="M1680 920 l0 -222 143 4 c125 3 148 6 190 27 67 33 100 85 105 166 7
105 -29 174 -112 217 -35 19 -62 23 -183 26 l-143 4 0 -222z"/>
<path d="M10640 920 l0 -222 143 4 c130 3 147 5 192 29 62 31 92 74 100 144
14 110 -15 178 -99 230 -48 29 -53 30 -193 34 l-143 3 0 -222z"/>
<path d="M23534 1154 c-59 -25 -84 -41 -88 -57 -9 -29 -25 -591 -26 -874 l0
-223 100 0 100 0 0 595 c0 327 -1 595 -2 594 -2 0 -40 -16 -84 -35z"/>
</g>
</svg>
