<?xml version="1.0"?>
<!DOCTYPE svg PUBLIC "-//W3C//DTD SVG 1.1//EN" "http://www.w3.org/Graphics/SVG/1.1/DTD/svg11.dtd">
<svg width="99.5298592225864mm" height="94.7540376117959mm" viewBox="0 0 99.5298592225864 94.7540376117959" xmlns="http://www.w3.org/2000/svg" version="1.1">
<g id="Array" transform="translate(49.764930,46.589633) scale(1,-1)">
<path id="Array_w0000"  d="M -17.500000000000004 45.613850000386044 L 17.50000000000001 45.613850000386044 L 17.500000000000014 40.61385000038605 A 50 50 0 0 0 -17.5 40.6139L -17.500000000000004 45.613850000386044 " stroke="#000000" stroke-width="0.7 px" style="stroke-width:0.7;stroke-miterlimit:4;stroke-dasharray:none;stroke-linecap:square;fill:none;fill-opacity:1;fill-rule: evenodd"/>
<path id="Array_w0001"  d="M -48.78914667773842 -2.548034206176201 L -37.97355187461526 30.73894386415419 L -33.2182692931395 29.193858892279458 A 50 50 0 0 0 -44.0339 -4.09312L -48.78914667773842 -2.548034206176201 " stroke="#000000" stroke-width="0.7 px" style="stroke-width:0.7;stroke-miterlimit:4;stroke-dasharray:none;stroke-linecap:square;fill:none;fill-opacity:1;fill-rule: evenodd"/>
<path id="Array_w0002"  d="M -12.653350928946361 -47.1886217443003 L -40.968945732069535 -26.616137914063728 L -38.03001947060718 -22.571052942188995 A 50 50 0 0 0 -9.71442 -43.1435L -12.653350928946361 -47.1886217443003 " stroke="#000000" stroke-width="0.7 px" style="stroke-width:0.7;stroke-miterlimit:4;stroke-dasharray:none;stroke-linecap:square;fill:none;fill-opacity:1;fill-rule: evenodd"/>
<path id="Array_w0003"  d="M 40.96894573206952 -26.616137914063742 L 12.653350928946345 -47.188621744300306 L 9.714424667483978 -43.143536772425584 A 50 50 0 0 0 38.03 -22.5711L 40.96894573206952 -26.616137914063742 " stroke="#000000" stroke-width="0.7 px" style="stroke-width:0.7;stroke-miterlimit:4;stroke-dasharray:none;stroke-linecap:square;fill:none;fill-opacity:1;fill-rule: evenodd"/>
<path id="Array_w0004"  d="M 37.973551874615275 30.738943864154173 L 48.78914667773843 -2.5480342061762205 L 44.03386409626267 -4.093119178050959 A 50 50 0 0 0 33.2183 29.1939L 37.973551874615275 30.738943864154173 " stroke="#000000" stroke-width="0.7 px" style="stroke-width:0.7;stroke-miterlimit:4;stroke-dasharray:none;stroke-linecap:square;fill:none;fill-opacity:1;fill-rule: evenodd"/>
<title>b'Array'</title>
</g>
</svg>