<?xml version="1.0"?>
<!DOCTYPE svg PUBLIC "-//W3C//DTD SVG 1.1//EN" "http://www.w3.org/Graphics/SVG/1.1/DTD/svg11.dtd">
<svg width="143.245739468028mm" height="44.80873998956919mm" viewBox="0 0 143.245739468028 44.80873998956919" xmlns="http://www.w3.org/2000/svg" version="1.1">
<g id="Sketch" transform="translate(66.989407,22.404370) scale(1,-1)">
<path id="Sketch_w0000"  d="M -55.585037 -20.99999999999999 A 68 68 0 0 1 -55.585 21L -43.585037 20.999999999999996 A 68 68 0 0 1 -43.585 -21L -55.585037 -20.999999999999993 " stroke="#000000" stroke-width="0.35 px" style="stroke-width:0.35;stroke-miterlimit:4;stroke-dasharray:none;stroke-linecap:square;fill:none;fill-opacity:1;fill-rule: evenodd"/>
<path id="Sketch_w0001"  d="M -1.5850369999999998 -20.999999999999986 A 68 68 0 0 1 -1.58504 21L 10.414963 21.000000000000007 A 68 68 0 0 1 10.415 -21L -1.5850369999999998 -20.99999999999999 " stroke="#000000" stroke-width="0.35 px" style="stroke-width:0.35;stroke-miterlimit:4;stroke-dasharray:none;stroke-linecap:square;fill:none;fill-opacity:1;fill-rule: evenodd"/>
<path id="Sketch_w0002"  d="M 52.414962296166564 -20.999999999999986 A 68 68 0 0 1 52.415 21L 64.41496229616656 21.000000000000004 A 68 68 0 0 1 64.415 -21L 52.414962296166564 -20.999999999999986 " stroke="#000000" stroke-width="0.35 px" style="stroke-width:0.35;stroke-miterlimit:4;stroke-dasharray:none;stroke-linecap:square;fill:none;fill-opacity:1;fill-rule: evenodd"/>
<path id="Sketch_w0003"  d="M -21.585037 -20.999999999999986 A 68 68 0 0 1 -21.585 21L -23.585037 21.000000000000007 A 68 68 0 0 1 -23.585 -21L -21.585037 -20.999999999999986 " stroke="#000000" stroke-width="0.35 px" style="stroke-width:0.35;stroke-miterlimit:4;stroke-dasharray:none;stroke-linecap:square;fill:none;fill-opacity:1;fill-rule: evenodd"/>
<path id="Sketch_w0004"  d="M 30.414962648083286 21.000000000000007 A 68 68 0 0 1 30.415 -21L 32.41496264808328 -20.999999999999986 A 68 68 0 0 1 32.415 21L 30.414962648083282 21.000000000000007 " stroke="#000000" stroke-width="0.35 px" style="stroke-width:0.35;stroke-miterlimit:4;stroke-dasharray:none;stroke-linecap:square;fill:none;fill-opacity:1;fill-rule: evenodd"/>
<path id="Sketch_w0005"  d="M -65.585037 -1.108511562900491e-29 L 74.41496259897588 0.0 " stroke="#000000" stroke-width="0.35 px" style="stroke-width:0.35;stroke-miterlimit:4;stroke-dasharray:none;stroke-linecap:square;fill:none;fill-opacity:1;fill-rule: evenodd"/>
<path id="Sketch_w0006"  d="M -65.585037 -16.0 L -49.58503687166007 -4.3100000000000005 L -22.585037 0.0 L 4.414962952381561 4.31 L 31.414962648083282 16.0 L 58.414962357129156 4.29040644053981 L 74.41496259897589 3.117709 " stroke="#000000" stroke-width="0.35 px" style="stroke-width:0.35;stroke-miterlimit:4;stroke-dasharray:none;stroke-linecap:square;fill:none;fill-opacity:1;fill-rule: evenodd"/>
<path id="Sketch_w0007"  d="M -65.585037 17.402985 L -49.58503687166007 5.7129850000000015 L -22.585037 17.402985 L 4.414962952381561 5.7129850000000015 L 31.414962648083282 17.402985 L 58.414962357129156 5.7129850000000015 L 74.85196247845883 17.402985 " stroke="#000000" stroke-width="0.35 px" style="stroke-width:0.35;stroke-miterlimit:4;stroke-dasharray:none;stroke-linecap:square;fill:none;fill-opacity:1;fill-rule: evenodd"/>
<path id="Sketch_w0008"  d="M -65.585037 -17.402985 L -49.58503687166007 -5.7129850000000015 L -22.585037 -17.402985 L 4.414962952381561 -5.7129850000000015 L 31.414962648083282 -17.402985 L 58.82546518900065 -5.727714219930977 L 74.41496259897589 -17.4084708060442 " stroke="#000000" stroke-width="0.35 px" style="stroke-width:0.35;stroke-miterlimit:4;stroke-dasharray:none;stroke-linecap:square;fill:none;fill-opacity:1;fill-rule: evenodd"/>
<title>b'Sketch'</title>
</g>
</svg>